Coordinates
version=1
nRows=7
nColumns=40
inDegrees=yes

Units are S.I. units (second, meters, Newtons, ...)
Angles are in degrees.

endheader
time	pelvis_tilt	pelvis_list	pelvis_rotation	pelvis_tx	pelvis_ty	pelvis_tz	hip_flexion_r	hip_adduction_r	hip_rotation_r	knee_angle_r	knee_angle_r_beta	ankle_angle_r	subtalar_angle_r	mtp_angle_r	hip_flexion_l	hip_adduction_l	hip_rotation_l	knee_angle_l	knee_angle_l_beta	ankle_angle_l	subtalar_angle_l	mtp_angle_l	lumbar_extension	lumbar_bending	lumbar_rotation	arm_flex_r	arm_add_r	arm_rot_r	elbow_flex_r	pro_sup_r	wrist_flex_r	wrist_dev_r	arm_flex_l	arm_add_l	arm_rot_l	elbow_flex_l	pro_sup_l	wrist_flex_l	wrist_dev_l
     47.76900000	     -3.40063063	     -5.74247725	      6.62086366	      1.11764884	      0.93267360	      0.48589252	      7.30073247	      4.31990607	    -17.78260102	     13.31810777	     13.31810777	     11.00438905	     -0.47248399	     -3.72141068	     34.48935656	    -11.25517820	      2.96659628	     53.20032667	     53.20032667	      8.21979834	    -18.48665489	     13.57824651	    -10.23448908	      6.45411595	      2.95977802	     25.58431032	    -15.62068907	     -7.96047443	     54.84775134	     45.55065885	      0.00000000	      0.00000000	      3.91400355	     -7.32075600	      0.39388832	     30.59437822	     46.63097098	      0.00000000	      0.00000000
     47.78050000	     -3.52184942	     -5.69259107	      6.66958780	      1.11655373	      0.93242796	      0.48630227	      6.48582045	      4.46103624	    -17.84755917	     12.60615393	     12.60615393	     11.29669741	     -0.07473812	     -3.85339484	     34.93682442	    -10.97809353	      2.46294789	     49.49155282	     49.49155282	      8.20007680	    -18.34651229	     13.94181330	    -10.20732554	      6.22330211	      3.13578107	     28.02946699	    -15.94457648	     -7.86801866	     57.17458028	     45.47724134	      0.00000000	      0.00000000	      2.60688695	     -7.18051409	      0.66618052	     28.56099069	     46.55458855	      0.00000000	      0.00000000
     47.79200000	     -3.69900936	     -5.72325715	      6.70294877	      1.11547965	      0.93184974	      0.48652894	      5.74584837	      4.63800645	    -18.05753300	     11.91938937	     11.91938937	     11.53609287	      0.65293228	     -4.27579861	     35.28435153	    -10.68837806	      2.11130336	     45.54480196	     45.54480196	      7.76437181	    -18.02774855	     13.10276072	    -10.15437723	      6.14351351	      3.85411721	     29.66401862	    -16.97868388	     -7.39132141	     61.03273459	     45.33862467	      0.00000000	      0.00000000	      1.96845836	     -6.87815131	      1.37293099	     25.43651944	     46.38150976	      0.00000000	      0.00000000
     47.80350000	     -3.84833165	     -5.71544745	      6.73302198	      1.11448531	      0.93116124	      0.48659241	      5.00173700	      4.79573451	    -18.01989096	     11.29929007	     11.29929007	     11.88112833	      0.96440571	     -4.34246268	     35.48577248	    -10.28808439	      1.86636564	     41.55710264	     41.55710264	      7.74271040	    -17.35185926	     13.36077033	    -10.09501511	      6.01316242	      3.89176689	     32.32243527	    -17.05659594	     -7.56393963	     62.94406072	     45.29391593	      0.00000000	      0.00000000	      0.25487800	     -6.87270614	      1.52356718	     24.53349708	     46.31405157	      0.00000000	      0.00000000
     47.81500000	     -4.00866171	     -5.78065453	      6.77971811	      1.11364663	      0.93018075	      0.48646875	      4.25118951	      5.00217769	    -18.12147971	     10.66404447	     10.66404447	     12.25456749	      1.50504417	     -4.47473133	     35.63294093	     -9.92108241	      1.75992625	     37.59779224	     37.59779224	      7.71030949	    -16.25895274	     13.27206459	    -10.02194674	      5.99002950	      3.85217522	     34.90780317	    -17.11569193	     -7.56099103	     65.16234901	     45.23266748	      0.00000000	      0.00000000	     -1.48767309	     -6.84294339	      1.72385709	     23.70075148	     46.23424243	      0.00000000	      0.00000000
     47.82650000	     -4.18027115	     -5.83597564	      6.82635600	      1.11291766	      0.92898159	      0.48617768	      3.55281224	      5.17125679	    -18.22293991	     10.13008591	     10.13008591	     12.69224571	      2.00756083	     -4.64104675	     35.72237036	     -9.56078992	      1.61034815	     33.73707571	     33.73707571	      7.72173822	    -14.64808864	     13.11924849	     -9.89429274	      5.98990709	      3.94843182	     37.38406106	    -17.31146351	     -7.50905377	     67.27427286	     45.17341097	      0.00000000	      0.00000000	     -3.18226019	     -6.80769021	      1.90589022	     23.06821020	     46.15779557	      0.00000000	      0.00000000
     47.83800000	     -4.30742056	     -5.93783695	      6.89659854	      1.11236887	      0.92761865	      0.48576292	      2.80503830	      5.39032934	    -18.38013873	      9.61300855	      9.61300855	     13.15235068	      2.55425359	     -4.80975046	     35.72908460	     -9.24490527	      1.51157767	     30.06459258	     30.06459258	      7.77400572	    -12.68667368	     12.83886483	     -9.81996827	      6.02698921	      3.95674256	     39.79856550	    -17.46931295	     -7.36321749	     69.55663952	     45.10587834	      0.00000000	      0.00000000	     -4.93151219	     -6.76960105	      2.11528052	     22.60125303	     46.07099276	      0.00000000	      0.00000000
